<svg id="Layer_1" data-name="Layer 1" xmlns="http://www.w3.org/2000/svg" viewBox="0 0 50 50"><defs><style>.cls-1{fill:#fff;}</style></defs><title>businka</title><path class="cls-1" d="M36.6,37.55a.94.94,0,0,1-.67-.28L25,26.34,14.07,37.27a.95.95,0,0,1-1.34-1.34L23.66,25,12.73,14.07a.95.95,0,0,1,1.34-1.34L25,23.66,35.93,12.73a.95.95,0,1,1,1.34,1.34L26.34,25,37.27,35.93a.95.95,0,0,1-.67,1.62Z"/><path d="M36.6,12.53A.87.87,0,0,1,37.22,14l-11,11,11,11A.87.87,0,1,1,36,37.22l-11-11-11,11A.87.87,0,0,1,12.78,36l11-11-11-11A.87.87,0,1,1,14,12.78l11,11,11-11a.87.87,0,0,1,.62-.26m0-.15a1,1,0,0,0-.72.3L25,23.55,14.12,12.68a1,1,0,1,0-1.45,1.45L23.55,25,12.68,35.88a1,1,0,1,0,1.45,1.45L25,26.45,35.88,37.32a1,1,0,0,0,1.45-1.45L26.45,25,37.32,14.12a1,1,0,0,0-.72-1.75Z"/></svg>